<svg width="422" height="163" viewBox="0 0 422 163" fill="none" xmlns="http://www.w3.org/2000/svg">
<rect x="154" width="102" height="102" rx="25" fill="white"/>
<path d="M30.4501 146.329C30.4501 147.448 30.3764 148.455 30.229 149.35H7.84739C8.0316 151.587 8.80529 153.34 10.1684 154.608C11.5316 155.876 13.2079 156.51 15.1974 156.51C18.0711 156.51 20.1158 155.261 21.3316 152.762H29.6764C28.7922 155.746 27.0974 158.207 24.5922 160.147C22.0869 162.049 19.0106 163 15.3632 163C12.4158 163 9.76318 162.347 7.40528 161.042C5.08422 159.699 3.26053 157.816 1.93422 155.392C0.644739 152.967 0 150.17 0 147C0 143.793 0.644739 140.977 1.93422 138.552C3.22369 136.128 5.02896 134.263 7.35002 132.958C9.67108 131.653 12.3421 131 15.3632 131C18.2737 131 20.8711 131.634 23.1553 132.902C25.4764 134.17 27.2632 135.979 28.5159 138.329C29.8053 140.641 30.4501 143.308 30.4501 146.329ZM22.4369 144.091C22.4001 142.077 21.6816 140.473 20.2816 139.28C18.8816 138.049 17.1685 137.434 15.1421 137.434C13.2264 137.434 11.6053 138.03 10.279 139.224C8.9895 140.38 8.19739 142.002 7.90265 144.091H22.4369Z" fill="white"/>
<path d="M65 131.503V162.497H57.2079V158.58C56.2131 159.923 54.9052 160.986 53.2842 161.769C51.7 162.515 49.9684 162.888 48.0894 162.888C45.6947 162.888 43.5763 162.385 41.7342 161.378C39.892 160.333 38.4368 158.823 37.3684 156.846C36.3368 154.832 35.821 152.445 35.821 149.685V131.503H43.5578V148.566C43.5578 151.028 44.1657 152.93 45.3815 154.273C46.5973 155.578 48.2552 156.231 50.3552 156.231C52.4921 156.231 54.1684 155.578 55.3842 154.273C56.6 152.93 57.2079 151.028 57.2079 148.566V131.503H65Z" fill="white"/>
<path d="M86.53 131.3C90.5092 131.3 93.8437 132.409 96.5333 134.626C99.223 136.805 100.918 139.817 101.618 143.659H91.6146C91.3198 142.329 90.7119 141.294 89.7908 140.555C88.8696 139.817 87.709 139.447 86.3089 139.447C84.6509 139.447 83.2877 140.112 82.2192 141.442C81.1507 142.735 80.6165 144.638 80.6165 147.15C80.6165 149.663 81.1507 151.584 82.2192 152.914C83.2877 154.207 84.6509 154.853 86.3089 154.853C87.709 154.853 88.8696 154.484 89.7908 153.745C90.7119 153.006 91.3198 151.972 91.6146 150.642H101.618C100.918 154.484 99.223 157.514 96.5333 159.73C93.8437 161.91 90.5092 163 86.53 163C83.5088 163 80.8191 162.372 78.461 161.116C76.1398 159.823 74.316 157.975 72.9896 155.574C71.6632 153.172 71 150.365 71 147.15C71 143.899 71.6448 141.091 72.9343 138.727C74.2608 136.325 76.103 134.496 78.461 133.24C80.8191 131.947 83.5088 131.3 86.53 131.3Z" fill="white"/>
<path d="M120.976 131.3C124.034 131.3 126.76 131.947 129.155 133.24C131.587 134.496 133.484 136.325 134.848 138.727C136.248 141.128 136.948 143.936 136.948 147.15C136.948 150.365 136.248 153.172 134.848 155.574C133.484 157.975 131.587 159.823 129.155 161.116C126.76 162.372 124.034 163 120.976 163C117.917 163 115.173 162.372 112.741 161.116C110.309 159.823 108.393 157.975 106.993 155.574C105.63 153.172 104.948 150.365 104.948 147.15C104.948 143.936 105.63 141.128 106.993 138.727C108.393 136.325 110.309 134.496 112.741 133.24C115.173 131.947 117.917 131.3 120.976 131.3ZM120.976 139.502C119.17 139.502 117.641 140.167 116.388 141.498C115.173 142.791 114.565 144.675 114.565 147.15C114.565 149.626 115.173 151.51 116.388 152.803C117.641 154.096 119.17 154.743 120.976 154.743C122.781 154.743 124.292 154.096 125.507 152.803C126.723 151.51 127.331 149.626 127.331 147.15C127.331 144.675 126.723 142.791 125.507 141.498C124.292 140.167 122.781 139.502 120.976 139.502Z" fill="white"/>
<path d="M161.413 131.356C164.95 131.356 167.75 132.538 169.813 134.903C171.914 137.267 172.964 140.518 172.964 144.656V162.612H163.513V145.765C163.513 143.696 162.96 142.089 161.855 140.943C160.786 139.761 159.35 139.17 157.544 139.17C155.628 139.17 154.099 139.78 152.957 140.999C151.852 142.218 151.299 143.954 151.299 146.208V162.612H141.848V131.688H151.299V137.341C152.183 135.494 153.491 134.034 155.223 132.963C156.991 131.892 159.055 131.356 161.413 131.356Z" fill="white"/>
<path d="M196.661 154.466V162.612H192.406C188.795 162.612 185.976 161.725 183.95 159.952C181.96 158.142 180.965 155.167 180.965 151.03V139.669H176.82V131.688H180.965V124.096H190.416V131.688H196.606V139.669H190.416V151.196C190.416 152.415 190.655 153.265 191.134 153.745C191.65 154.225 192.498 154.466 193.677 154.466H196.661Z" fill="white"/>
<path d="M211.423 137.507C212.602 135.623 214.113 134.127 215.955 133.018C217.834 131.91 219.861 131.356 222.035 131.356V141.498H219.327C216.821 141.498 214.868 142.033 213.468 143.105C212.105 144.176 211.423 145.986 211.423 148.536V162.612H201.973V131.688H211.423V137.507Z" fill="white"/>
<path d="M225.106 122.988C225.106 121.547 225.622 120.365 226.653 119.441C227.685 118.48 229.048 118 230.743 118C232.438 118 233.801 118.48 234.833 119.441C235.864 120.365 236.38 121.547 236.38 122.988C236.38 124.392 235.864 125.574 234.833 126.534C233.801 127.458 232.438 127.92 230.743 127.92C229.048 127.92 227.685 127.458 226.653 126.534C225.622 125.574 225.106 124.392 225.106 122.988ZM235.441 131.688V162.612H225.99V131.688H235.441Z" fill="white"/>
<path d="M261.199 131.3C263.741 131.3 266.007 131.947 267.996 133.24C270.023 134.496 271.607 136.325 272.749 138.727C273.928 141.091 274.518 143.899 274.518 147.15C274.518 150.365 273.928 153.172 272.749 155.574C271.607 157.975 270.023 159.823 267.996 161.116C266.007 162.372 263.741 163 261.199 163C258.841 163 256.814 162.464 255.119 161.393C253.424 160.321 252.19 158.862 251.416 157.015V162.612H241.966V121.602H251.416V137.286C252.19 135.438 253.424 133.979 255.119 132.908C256.814 131.836 258.841 131.3 261.199 131.3ZM258.159 139.613C256.169 139.613 254.53 140.297 253.24 141.664C251.987 142.994 251.361 144.823 251.361 147.15C251.361 149.441 251.987 151.27 253.24 152.637C254.53 154.004 256.169 154.687 258.159 154.687C260.185 154.687 261.807 154.022 263.022 152.692C264.275 151.362 264.902 149.515 264.902 147.15C264.902 144.786 264.275 142.938 263.022 141.608C261.807 140.278 260.185 139.613 258.159 139.613Z" fill="white"/>
<path d="M310.095 131.688V162.612H300.589V157.015C299.705 158.825 298.379 160.266 296.61 161.337C294.878 162.409 292.852 162.945 290.531 162.945C286.994 162.945 284.175 161.762 282.075 159.398C280.012 157.033 278.98 153.782 278.98 149.644V131.688H288.375V148.48C288.375 150.586 288.91 152.23 289.978 153.413C291.083 154.558 292.557 155.131 294.399 155.131C296.315 155.131 297.826 154.521 298.931 153.302C300.037 152.083 300.589 150.346 300.589 148.092V131.688H310.095Z" fill="white"/>
<path d="M315.724 122.988C315.724 121.547 316.24 120.365 317.272 119.441C318.303 118.48 319.667 118 321.361 118C323.056 118 324.42 118.48 325.451 119.441C326.483 120.365 326.999 121.547 326.999 122.988C326.999 124.392 326.483 125.574 325.451 126.534C324.42 127.458 323.056 127.92 321.361 127.92C319.667 127.92 318.303 127.458 317.272 126.534C316.24 125.574 315.724 124.392 315.724 122.988ZM326.059 131.688V162.612H316.608V131.688H326.059Z" fill="white"/>
<path d="M352.149 131.356C355.686 131.356 358.486 132.538 360.549 134.903C362.649 137.267 363.699 140.518 363.699 144.656V162.612H354.249V145.765C354.249 143.696 353.696 142.089 352.591 140.943C351.522 139.761 350.085 139.17 348.28 139.17C346.364 139.17 344.835 139.78 343.693 140.999C342.587 142.218 342.035 143.954 342.035 146.208V162.612H332.584V131.688H342.035V137.341C342.919 135.494 344.227 134.034 345.959 132.963C347.727 131.892 349.791 131.356 352.149 131.356Z" fill="white"/>
<path d="M387.397 154.466V162.612H383.141C379.53 162.612 376.712 161.725 374.685 159.952C372.696 158.142 371.701 155.167 371.701 151.03V139.669H367.556V131.688H371.701V124.096H381.152V131.688H387.342V139.669H381.152V151.196C381.152 152.415 381.391 153.265 381.87 153.745C382.386 154.225 383.233 154.466 384.412 154.466H387.397Z" fill="white"/>
<path d="M422 146.319C422 147.095 421.908 147.945 421.724 148.868H400.335C400.446 151.196 401.035 152.877 402.104 153.911C403.172 154.909 404.536 155.408 406.194 155.408C407.594 155.408 408.754 155.057 409.675 154.355C410.597 153.653 411.204 152.748 411.499 151.639H421.503C421.097 153.819 420.213 155.777 418.85 157.514C417.487 159.213 415.755 160.562 413.655 161.559C411.555 162.52 409.215 163 406.636 163C403.614 163 400.925 162.372 398.567 161.116C396.246 159.823 394.422 157.975 393.095 155.574C391.769 153.172 391.106 150.365 391.106 147.15C391.106 143.899 391.751 141.091 393.04 138.727C394.366 136.325 396.209 134.496 398.567 133.24C400.925 131.947 403.614 131.3 406.636 131.3C409.694 131.3 412.384 131.929 414.705 133.185C417.026 134.441 418.813 136.214 420.066 138.505C421.355 140.759 422 143.363 422 146.319ZM412.439 144.878C412.476 142.846 411.923 141.331 410.781 140.334C409.675 139.299 408.294 138.782 406.636 138.782C404.904 138.782 403.467 139.299 402.325 140.334C401.183 141.368 400.538 142.883 400.391 144.878H412.439Z" fill="white"/>
<path d="M225.8 19H184.2C181.34 19 179 21.3625 179 24.25V76.75C179 79.6375 181.34 82 184.2 82H225.8C228.66 82 231 79.6375 231 76.75V24.25C231 21.3625 228.66 19 225.8 19ZM194.6 71.5C194.6 72.9437 193.43 74.125 192 74.125H186.8C185.37 74.125 184.2 72.9437 184.2 71.5V70.1875C184.2 68.7438 185.37 67.5625 186.8 67.5625H192C193.43 67.5625 194.6 68.7438 194.6 70.1875V71.5ZM194.6 61C194.6 62.4437 193.43 63.625 192 63.625H186.8C185.37 63.625 184.2 62.4437 184.2 61V59.6875C184.2 58.2438 185.37 57.0625 186.8 57.0625H192C193.43 57.0625 194.6 58.2438 194.6 59.6875V61ZM194.6 50.5C194.6 51.9437 193.43 53.125 192 53.125H186.8C185.37 53.125 184.2 51.9437 184.2 50.5V49.1875C184.2 47.7437 185.37 46.5625 186.8 46.5625H192C193.43 46.5625 194.6 47.7437 194.6 49.1875V50.5ZM210.2 71.5C210.2 72.9437 209.03 74.125 207.6 74.125H202.4C200.97 74.125 199.8 72.9437 199.8 71.5V70.1875C199.8 68.7438 200.97 67.5625 202.4 67.5625H207.6C209.03 67.5625 210.2 68.7438 210.2 70.1875V71.5ZM210.2 61C210.2 62.4437 209.03 63.625 207.6 63.625H202.4C200.97 63.625 199.8 62.4437 199.8 61V59.6875C199.8 58.2438 200.97 57.0625 202.4 57.0625H207.6C209.03 57.0625 210.2 58.2438 210.2 59.6875V61ZM210.2 50.5C210.2 51.9437 209.03 53.125 207.6 53.125H202.4C200.97 53.125 199.8 51.9437 199.8 50.5V49.1875C199.8 47.7437 200.97 46.5625 202.4 46.5625H207.6C209.03 46.5625 210.2 47.7437 210.2 49.1875V50.5ZM225.8 71.5C225.8 72.9437 224.63 74.125 223.2 74.125H218C216.57 74.125 215.4 72.9437 215.4 71.5V70.1875C215.4 68.7438 216.57 67.5625 218 67.5625H223.2C224.63 67.5625 225.8 68.7438 225.8 70.1875V71.5ZM225.8 61C225.8 62.4437 224.63 63.625 223.2 63.625H218C216.57 63.625 215.4 62.4437 215.4 61V59.6875C215.4 58.2438 216.57 57.0625 218 57.0625H223.2C224.63 57.0625 225.8 58.2438 225.8 59.6875V61ZM225.8 50.5C225.8 51.9437 224.63 53.125 223.2 53.125H218C216.57 53.125 215.4 51.9437 215.4 50.5V49.1875C215.4 47.7437 216.57 46.5625 218 46.5625H223.2C224.63 46.5625 225.8 47.7437 225.8 49.1875V50.5ZM225.8 38.6875C225.8 40.1313 224.63 41.3125 223.2 41.3125H186.8C185.37 41.3125 184.2 40.1313 184.2 38.6875V28.1875C184.2 26.7438 185.37 25.5625 186.8 25.5625H223.2C224.63 25.5625 225.8 26.7438 225.8 28.1875V38.6875Z" fill="#0578A5"/>
</svg>
