<svg width="208" height="68" viewBox="0 0 208 68" fill="none" xmlns="http://www.w3.org/2000/svg">
<path d="M66.4981 23.224C64.9408 23.224 63.5328 22.9573 62.2741 22.424C61.0368 21.8907 60.0555 21.1227 59.3301 20.12C58.6048 19.1173 58.2315 17.9333 58.2101 16.568H63.0101C63.0741 17.4853 63.3941 18.2107 63.9701 18.744C64.5675 19.2773 65.3781 19.544 66.4021 19.544C67.4475 19.544 68.2688 19.2987 68.8661 18.808C69.4635 18.296 69.7621 17.6347 69.7621 16.824C69.7621 16.1627 69.5595 15.6187 69.1541 15.192C68.7488 14.7653 68.2368 14.4347 67.6181 14.2C67.0208 13.944 66.1888 13.6667 65.1221 13.368C63.6715 12.9413 62.4875 12.5253 61.5701 12.12C60.6741 11.6933 59.8955 11.064 59.2341 10.232C58.5941 9.37867 58.2741 8.248 58.2741 6.84C58.2741 5.51733 58.6048 4.36533 59.2661 3.384C59.9275 2.40267 60.8555 1.656 62.0501 1.144C63.2448 0.610666 64.6101 0.344 66.1461 0.344C68.4501 0.344 70.3168 0.909333 71.7461 2.04C73.1968 3.14933 73.9968 4.70667 74.1461 6.712H69.2181C69.1755 5.944 68.8448 5.31467 68.2261 4.824C67.6288 4.312 66.8288 4.056 65.8261 4.056C64.9515 4.056 64.2475 4.28 63.7141 4.728C63.2021 5.176 62.9461 5.82667 62.9461 6.68C62.9461 7.27733 63.1381 7.77867 63.5221 8.184C63.9275 8.568 64.4181 8.888 64.9941 9.144C65.5915 9.37867 66.4235 9.656 67.4901 9.976C68.9408 10.4027 70.1248 10.8293 71.0421 11.256C71.9595 11.6827 72.7488 12.3227 73.4101 13.176C74.0715 14.0293 74.4021 15.1493 74.4021 16.536C74.4021 17.7307 74.0928 18.84 73.4741 19.864C72.8555 20.888 71.9488 21.7093 70.7541 22.328C69.5595 22.9253 68.1408 23.224 66.4981 23.224ZM82.7661 4.28V9.88H90.2861V13.432H82.7661V19.352H91.2461V23H78.2861V0.631998H91.2461V4.28H82.7661ZM109.109 0.664V4.28H99.7974V10.008H106.933V13.56H99.7974V23H95.3174V0.664H109.109ZM125.982 18.744H117.086L115.614 23H110.91L118.942 0.631998H124.158L132.19 23H127.454L125.982 18.744ZM124.766 15.16L121.534 5.816L118.302 15.16H124.766ZM139.768 19.224H149.816V23H134.584V19.544L144.568 4.44H134.584V0.664H149.816V4.12L139.768 19.224ZM10.5682 41.24C10.5682 41.9333 10.4015 42.58 10.0682 43.18C9.73487 43.7667 9.2282 44.24 8.5482 44.6C7.8682 44.96 7.03487 45.14 6.0482 45.14C5.0882 45.14 4.2282 44.9733 3.4682 44.64C2.7082 44.2933 2.10154 43.8133 1.6482 43.2C1.19487 42.5867 0.93487 41.88 0.868203 41.08H3.3082C3.37487 41.6933 3.63487 42.22 4.0882 42.66C4.55487 43.1 5.17487 43.32 5.9482 43.32C6.64154 43.32 7.17487 43.1333 7.5482 42.76C7.93487 42.3867 8.1282 41.9067 8.1282 41.32C8.1282 40.8133 7.9882 40.4 7.7082 40.08C7.4282 39.7467 7.08154 39.4867 6.6682 39.3C6.25487 39.1133 5.6882 38.9 4.9682 38.66C4.0882 38.38 3.3682 38.1 2.8082 37.82C2.26154 37.54 1.79487 37.1333 1.4082 36.6C1.02154 36.0667 0.828203 35.3667 0.828203 34.5C0.828203 33.74 1.01487 33.0733 1.3882 32.5C1.76154 31.9267 2.29487 31.4867 2.9882 31.18C3.68154 30.86 4.48154 30.7 5.3882 30.7C6.8282 30.7 7.9682 31.0467 8.8082 31.74C9.66154 32.4333 10.1482 33.34 10.2682 34.46H7.8082C7.71487 33.9267 7.46154 33.4733 7.0482 33.1C6.6482 32.7133 6.09487 32.52 5.3882 32.52C4.7482 32.52 4.23487 32.6867 3.8482 33.02C3.46154 33.34 3.2682 33.8067 3.2682 34.42C3.2682 34.9 3.40154 35.3 3.6682 35.62C3.93487 35.9267 4.2682 36.1733 4.6682 36.36C5.08154 36.5333 5.64154 36.74 6.3482 36.98C7.24154 37.26 7.9682 37.5467 8.5282 37.84C9.10154 38.12 9.58154 38.5333 9.9682 39.08C10.3682 39.6267 10.5682 40.3467 10.5682 41.24ZM23.0907 38.96C23.0907 39.3333 23.064 39.66 23.0107 39.94H14.5307C14.5707 41.0733 14.884 41.9133 15.4707 42.46C16.0574 43.0067 16.784 43.28 17.6507 43.28C18.4107 43.28 19.0507 43.0867 19.5707 42.7C20.104 42.3133 20.4307 41.8 20.5507 41.16H22.9907C22.844 41.9333 22.5374 42.62 22.0707 43.22C21.604 43.82 20.9974 44.2933 20.2507 44.64C19.504 44.9733 18.6707 45.14 17.7507 45.14C16.684 45.14 15.7374 44.9133 14.9107 44.46C14.0974 44.0067 13.4574 43.3533 12.9907 42.5C12.524 41.6467 12.2907 40.64 12.2907 39.48C12.2907 38.3333 12.524 37.3333 12.9907 36.48C13.4574 35.6267 14.0974 34.9733 14.9107 34.52C15.7374 34.0667 16.684 33.84 17.7507 33.84C18.8307 33.84 19.7707 34.0667 20.5707 34.52C21.384 34.96 22.004 35.5733 22.4307 36.36C22.8707 37.1333 23.0907 38 23.0907 38.96ZM20.7907 38.9C20.8174 38.18 20.6907 37.58 20.4107 37.1C20.144 36.6067 19.7707 36.2467 19.2907 36.02C18.824 35.78 18.3107 35.66 17.7507 35.66C16.8574 35.66 16.1107 35.9333 15.5107 36.48C14.9107 37.0267 14.584 37.8333 14.5307 38.9H20.7907ZM30.1921 33.84C31.6188 33.84 32.7988 34.22 33.7321 34.98C34.6654 35.7267 35.2454 36.7467 35.4721 38.04H33.0521C32.9188 37.3467 32.5921 36.8067 32.0721 36.42C31.5654 36.02 30.9254 35.82 30.1521 35.82C29.2721 35.82 28.5388 36.1333 27.9521 36.76C27.3654 37.3733 27.0721 38.28 27.0721 39.48C27.0721 40.68 27.3654 41.5933 27.9521 42.22C28.5388 42.8467 29.2721 43.16 30.1521 43.16C30.9254 43.16 31.5654 42.96 32.0721 42.56C32.5921 42.16 32.9188 41.6133 33.0521 40.92H35.4721C35.2454 42.2133 34.6654 43.24 33.7321 44C32.7988 44.76 31.6188 45.14 30.1921 45.14C29.1254 45.14 28.1788 44.9133 27.3521 44.46C26.5388 44.0067 25.8988 43.3533 25.4321 42.5C24.9654 41.6467 24.7321 40.64 24.7321 39.48C24.7321 38.3333 24.9654 37.3333 25.4321 36.48C25.8988 35.6267 26.5388 34.9733 27.3521 34.52C28.1788 34.0667 29.1254 33.84 30.1921 33.84ZM39.9549 36.14C40.3283 35.42 40.8616 34.8533 41.5549 34.44C42.2483 34.0133 43.0483 33.8 43.9549 33.8V36.28H43.2749C42.2749 36.28 41.4683 36.5267 40.8549 37.02C40.2549 37.5 39.9549 38.3 39.9549 39.42V45H37.6749V33.98H39.9549V36.14ZM55.9032 38.96C55.9032 39.3333 55.8765 39.66 55.8232 39.94H47.3432C47.3832 41.0733 47.6965 41.9133 48.2832 42.46C48.8699 43.0067 49.5965 43.28 50.4632 43.28C51.2232 43.28 51.8632 43.0867 52.3832 42.7C52.9165 42.3133 53.2432 41.8 53.3632 41.16H55.8032C55.6565 41.9333 55.3499 42.62 54.8832 43.22C54.4165 43.82 53.8099 44.2933 53.0632 44.64C52.3165 44.9733 51.4832 45.14 50.5632 45.14C49.4965 45.14 48.5499 44.9133 47.7232 44.46C46.9099 44.0067 46.2699 43.3533 45.8032 42.5C45.3365 41.6467 45.1032 40.64 45.1032 39.48C45.1032 38.3333 45.3365 37.3333 45.8032 36.48C46.2699 35.6267 46.9099 34.9733 47.7232 34.52C48.5499 34.0667 49.4965 33.84 50.5632 33.84C51.6432 33.84 52.5832 34.0667 53.3832 34.52C54.1965 34.96 54.8165 35.5733 55.2432 36.36C55.6832 37.1333 55.9032 38 55.9032 38.96ZM53.6032 38.9C53.6299 38.18 53.5032 37.58 53.2232 37.1C52.9565 36.6067 52.5832 36.2467 52.1032 36.02C51.6365 35.78 51.1232 35.66 50.5632 35.66C49.6699 35.66 48.9232 35.9333 48.3232 36.48C47.7232 37.0267 47.3965 37.8333 47.3432 38.9H53.6032ZM63.6446 43.02V45H62.2446C61.0713 45 60.1779 44.72 59.5646 44.16C58.9646 43.5867 58.6646 42.64 58.6646 41.32V35.92H57.0846V33.98H58.6646V31.24H60.9646V33.98H63.6246V35.92H60.9646V41.36C60.9646 41.9867 61.0779 42.42 61.3046 42.66C61.5446 42.9 61.9579 43.02 62.5446 43.02H63.6446ZM70.2004 33.84C71.2004 33.84 72.0537 34.0867 72.7604 34.58C73.4671 35.0733 73.9671 35.7267 74.2604 36.54V33.98H76.5404V45H74.2604V42.44C73.9671 43.2533 73.4671 43.9067 72.7604 44.4C72.0537 44.8933 71.2004 45.14 70.2004 45.14C69.2404 45.14 68.3804 44.9133 67.6204 44.46C66.8737 44.0067 66.2871 43.3533 65.8604 42.5C65.4337 41.6467 65.2204 40.64 65.2204 39.48C65.2204 38.3333 65.4337 37.3333 65.8604 36.48C66.2871 35.6267 66.8737 34.9733 67.6204 34.52C68.3804 34.0667 69.2404 33.84 70.2004 33.84ZM70.9004 35.84C69.8871 35.84 69.0737 36.1667 68.4604 36.82C67.8604 37.46 67.5604 38.3467 67.5604 39.48C67.5604 40.6133 67.8604 41.5067 68.4604 42.16C69.0737 42.8 69.8871 43.12 70.9004 43.12C71.5404 43.12 72.1137 42.9733 72.6204 42.68C73.1271 42.3733 73.5271 41.9467 73.8204 41.4C74.1137 40.8533 74.2604 40.2133 74.2604 39.48C74.2604 38.76 74.1137 38.1267 73.8204 37.58C73.5271 37.02 73.1271 36.5933 72.6204 36.3C72.1137 35.9933 71.5404 35.84 70.9004 35.84ZM74.0604 30.86L69.6404 33.12V31.52L74.0604 29.08V30.86ZM81.5565 36.14C81.9298 35.42 82.4632 34.8533 83.1565 34.44C83.8498 34.0133 84.6498 33.8 85.5565 33.8V36.28H84.8765C83.8765 36.28 83.0698 36.5267 82.4565 37.02C81.8565 37.5 81.5565 38.3 81.5565 39.42V45H79.2765V33.98H81.5565V36.14ZM86.9448 30.78C86.9448 30.3933 87.0781 30.0733 87.3448 29.82C87.6114 29.5667 87.9648 29.44 88.4048 29.44C88.8448 29.44 89.1981 29.5667 89.4648 29.82C89.7448 30.0733 89.8848 30.3933 89.8848 30.78C89.8848 31.1667 89.7448 31.48 89.4648 31.72C89.1981 31.96 88.8448 32.08 88.4048 32.08C87.9648 32.08 87.6114 31.96 87.3448 31.72C87.0781 31.48 86.9448 31.1667 86.9448 30.78ZM89.5448 33.98V45H87.2648V33.98H89.5448ZM96.7238 33.84C97.7238 33.84 98.5772 34.0867 99.2838 34.58C99.9905 35.0733 100.49 35.7267 100.784 36.54V33.98H103.064V45H100.784V42.44C100.49 43.2533 99.9905 43.9067 99.2838 44.4C98.5772 44.8933 97.7238 45.14 96.7238 45.14C95.7638 45.14 94.9038 44.9133 94.1438 44.46C93.3972 44.0067 92.8105 43.3533 92.3838 42.5C91.9572 41.6467 91.7438 40.64 91.7438 39.48C91.7438 38.3333 91.9572 37.3333 92.3838 36.48C92.8105 35.6267 93.3972 34.9733 94.1438 34.52C94.9038 34.0667 95.7638 33.84 96.7238 33.84ZM97.4238 35.84C96.4105 35.84 95.5972 36.1667 94.9838 36.82C94.3838 37.46 94.0838 38.3467 94.0838 39.48C94.0838 40.6133 94.3838 41.5067 94.9838 42.16C95.5972 42.8 96.4105 43.12 97.4238 43.12C98.0638 43.12 98.6372 42.9733 99.1438 42.68C99.6505 42.3733 100.05 41.9467 100.344 41.4C100.637 40.8533 100.784 40.2133 100.784 39.48C100.784 38.76 100.637 38.1267 100.344 37.58C100.05 37.02 99.6505 36.5933 99.1438 36.3C98.6372 35.9933 98.0638 35.84 97.4238 35.84ZM114.907 33.84C115.907 33.84 116.761 34.0867 117.467 34.58C118.174 35.0733 118.667 35.7267 118.947 36.54V30.2H121.247V45H118.947V42.44C118.667 43.2533 118.174 43.9067 117.467 44.4C116.761 44.8933 115.907 45.14 114.907 45.14C113.947 45.14 113.087 44.9133 112.327 44.46C111.581 44.0067 110.994 43.3533 110.567 42.5C110.141 41.6467 109.927 40.64 109.927 39.48C109.927 38.3333 110.141 37.3333 110.567 36.48C110.994 35.6267 111.581 34.9733 112.327 34.52C113.087 34.0667 113.947 33.84 114.907 33.84ZM115.607 35.84C114.594 35.84 113.781 36.1667 113.167 36.82C112.567 37.46 112.267 38.3467 112.267 39.48C112.267 40.6133 112.567 41.5067 113.167 42.16C113.781 42.8 114.594 43.12 115.607 43.12C116.247 43.12 116.821 42.9733 117.327 42.68C117.834 42.3733 118.234 41.9467 118.527 41.4C118.821 40.8533 118.967 40.2133 118.967 39.48C118.967 38.76 118.821 38.1267 118.527 37.58C118.234 37.02 117.834 36.5933 117.327 36.3C116.821 35.9933 116.247 35.84 115.607 35.84ZM134.224 38.96C134.224 39.3333 134.197 39.66 134.144 39.94H125.664C125.704 41.0733 126.017 41.9133 126.604 42.46C127.19 43.0067 127.917 43.28 128.784 43.28C129.544 43.28 130.184 43.0867 130.704 42.7C131.237 42.3133 131.564 41.8 131.684 41.16H134.124C133.977 41.9333 133.67 42.62 133.204 43.22C132.737 43.82 132.13 44.2933 131.384 44.64C130.637 44.9733 129.804 45.14 128.884 45.14C127.817 45.14 126.87 44.9133 126.044 44.46C125.23 44.0067 124.59 43.3533 124.124 42.5C123.657 41.6467 123.424 40.64 123.424 39.48C123.424 38.3333 123.657 37.3333 124.124 36.48C124.59 35.6267 125.23 34.9733 126.044 34.52C126.87 34.0667 127.817 33.84 128.884 33.84C129.964 33.84 130.904 34.0667 131.704 34.52C132.517 34.96 133.137 35.5733 133.564 36.36C134.004 37.1333 134.224 38 134.224 38.96ZM131.924 38.9C131.95 38.18 131.824 37.58 131.544 37.1C131.277 36.6067 130.904 36.2467 130.424 36.02C129.957 35.78 129.444 35.66 128.884 35.66C127.99 35.66 127.244 35.9333 126.644 36.48C126.044 37.0267 125.717 37.8333 125.664 38.9H131.924ZM143.392 32.72V37H148.592V38.76H143.392V43.14H149.192V45H141.112V30.88H149.192V32.72H143.392ZM155.025 33.84C156.319 33.84 157.352 34.1733 158.125 34.84C158.912 35.4933 159.392 36.3733 159.565 37.48H157.405C157.312 36.88 157.052 36.4 156.625 36.04C156.212 35.6667 155.659 35.48 154.965 35.48C154.392 35.48 153.945 35.62 153.625 35.9C153.319 36.1667 153.165 36.5333 153.165 37C153.165 37.3467 153.279 37.6267 153.505 37.84C153.732 38.0533 154.012 38.22 154.345 38.34C154.692 38.46 155.179 38.5933 155.805 38.74C156.632 38.9267 157.299 39.12 157.805 39.32C158.325 39.52 158.765 39.84 159.125 40.28C159.499 40.7067 159.685 41.2933 159.685 42.04C159.685 42.96 159.332 43.7067 158.625 44.28C157.932 44.8533 156.992 45.14 155.805 45.14C154.432 45.14 153.319 44.82 152.465 44.18C151.625 43.54 151.119 42.6467 150.945 41.5H153.165C153.232 42.1 153.499 42.5867 153.965 42.96C154.432 43.3333 155.045 43.52 155.805 43.52C156.352 43.52 156.779 43.38 157.085 43.1C157.405 42.8067 157.565 42.44 157.565 42C157.565 41.6133 157.445 41.3067 157.205 41.08C156.965 40.8533 156.665 40.68 156.305 40.56C155.945 40.4267 155.452 40.2933 154.825 40.16C154.025 39.9733 153.372 39.7867 152.865 39.6C152.372 39.4133 151.945 39.1133 151.585 38.7C151.239 38.2733 151.065 37.7 151.065 36.98C151.065 36.0467 151.412 35.2933 152.105 34.72C152.812 34.1333 153.785 33.84 155.025 33.84ZM167.512 43.02V45H166.112C164.938 45 164.045 44.72 163.432 44.16C162.832 43.5867 162.532 42.64 162.532 41.32V35.92H160.952V33.98H162.532V31.24H164.832V33.98H167.492V35.92H164.832V41.36C164.832 41.9867 164.945 42.42 165.172 42.66C165.412 42.9 165.825 43.02 166.412 43.02H167.512ZM174.068 33.84C175.068 33.84 175.921 34.0867 176.628 34.58C177.334 35.0733 177.834 35.7267 178.128 36.54V33.98H180.408V45H178.128V42.44C177.834 43.2533 177.334 43.9067 176.628 44.4C175.921 44.8933 175.068 45.14 174.068 45.14C173.108 45.14 172.248 44.9133 171.488 44.46C170.741 44.0067 170.154 43.3533 169.728 42.5C169.301 41.6467 169.088 40.64 169.088 39.48C169.088 38.3333 169.301 37.3333 169.728 36.48C170.154 35.6267 170.741 34.9733 171.488 34.52C172.248 34.0667 173.108 33.84 174.068 33.84ZM174.768 35.84C173.754 35.84 172.941 36.1667 172.328 36.82C171.728 37.46 171.428 38.3467 171.428 39.48C171.428 40.6133 171.728 41.5067 172.328 42.16C172.941 42.8 173.754 43.12 174.768 43.12C175.408 43.12 175.981 42.9733 176.488 42.68C176.994 42.3733 177.394 41.9467 177.688 41.4C177.981 40.8533 178.128 40.2133 178.128 39.48C178.128 38.76 177.981 38.1267 177.688 37.58C177.394 37.02 176.994 36.5933 176.488 36.3C175.981 35.9933 175.408 35.84 174.768 35.84ZM187.564 33.84C188.564 33.84 189.417 34.0867 190.124 34.58C190.83 35.0733 191.324 35.7267 191.604 36.54V30.2H193.904V45H191.604V42.44C191.324 43.2533 190.83 43.9067 190.124 44.4C189.417 44.8933 188.564 45.14 187.564 45.14C186.604 45.14 185.744 44.9133 184.984 44.46C184.237 44.0067 183.65 43.3533 183.224 42.5C182.797 41.6467 182.584 40.64 182.584 39.48C182.584 38.3333 182.797 37.3333 183.224 36.48C183.65 35.6267 184.237 34.9733 184.984 34.52C185.744 34.0667 186.604 33.84 187.564 33.84ZM188.264 35.84C187.25 35.84 186.437 36.1667 185.824 36.82C185.224 37.46 184.924 38.3467 184.924 39.48C184.924 40.6133 185.224 41.5067 185.824 42.16C186.437 42.8 187.25 43.12 188.264 43.12C188.904 43.12 189.477 42.9733 189.984 42.68C190.49 42.3733 190.89 41.9467 191.184 41.4C191.477 40.8533 191.624 40.2133 191.624 39.48C191.624 38.76 191.477 38.1267 191.184 37.58C190.89 37.02 190.49 36.5933 189.984 36.3C189.477 35.9933 188.904 35.84 188.264 35.84ZM201.68 33.84C202.746 33.84 203.706 34.0667 204.56 34.52C205.413 34.9733 206.08 35.6267 206.56 36.48C207.04 37.3333 207.28 38.3333 207.28 39.48C207.28 40.64 207.04 41.6467 206.56 42.5C206.08 43.3533 205.413 44.0067 204.56 44.46C203.706 44.9133 202.746 45.14 201.68 45.14C200.613 45.14 199.653 44.9133 198.8 44.46C197.96 44.0067 197.293 43.3533 196.8 42.5C196.32 41.6333 196.08 40.6267 196.08 39.48C196.08 38.3333 196.32 37.3333 196.8 36.48C197.293 35.6267 197.96 34.9733 198.8 34.52C199.653 34.0667 200.613 33.84 201.68 33.84ZM201.68 35.82C201.093 35.82 200.553 35.9533 200.06 36.22C199.566 36.4867 199.166 36.9 198.86 37.46C198.566 38.0067 198.42 38.68 198.42 39.48C198.42 40.2933 198.566 40.9733 198.86 41.52C199.166 42.0667 199.566 42.4733 200.06 42.74C200.553 43.0067 201.093 43.14 201.68 43.14C202.266 43.14 202.806 43.0067 203.3 42.74C203.793 42.4733 204.186 42.0667 204.48 41.52C204.786 40.9733 204.94 40.2933 204.94 39.48C204.94 38.68 204.786 38.0067 204.48 37.46C204.186 36.9 203.793 36.4867 203.3 36.22C202.806 35.9533 202.266 35.82 201.68 35.82ZM53.5305 55.84C54.5305 55.84 55.3838 56.0867 56.0905 56.58C56.7971 57.0733 57.2905 57.7267 57.5705 58.54V52.2H59.8705V67H57.5705V64.44C57.2905 65.2533 56.7971 65.9067 56.0905 66.4C55.3838 66.8933 54.5305 67.14 53.5305 67.14C52.5705 67.14 51.7105 66.9133 50.9505 66.46C50.2038 66.0067 49.6171 65.3533 49.1905 64.5C48.7638 63.6467 48.5505 62.64 48.5505 61.48C48.5505 60.3333 48.7638 59.3333 49.1905 58.48C49.6171 57.6267 50.2038 56.9733 50.9505 56.52C51.7105 56.0667 52.5705 55.84 53.5305 55.84ZM54.2305 57.84C53.2171 57.84 52.4038 58.1667 51.7905 58.82C51.1905 59.46 50.8905 60.3467 50.8905 61.48C50.8905 62.6133 51.1905 63.5067 51.7905 64.16C52.4038 64.8 53.2171 65.12 54.2305 65.12C54.8705 65.12 55.4438 64.9733 55.9505 64.68C56.4571 64.3733 56.8571 63.9467 57.1505 63.4C57.4438 62.8533 57.5905 62.2133 57.5905 61.48C57.5905 60.76 57.4438 60.1267 57.1505 59.58C56.8571 59.02 56.4571 58.5933 55.9505 58.3C55.4438 57.9933 54.8705 57.84 54.2305 57.84ZM67.0266 55.84C68.0266 55.84 68.8799 56.0867 69.5866 56.58C70.2932 57.0733 70.7932 57.7267 71.0866 58.54V55.98H73.3666V67H71.0866V64.44C70.7932 65.2533 70.2932 65.9067 69.5866 66.4C68.8799 66.8933 68.0266 67.14 67.0266 67.14C66.0666 67.14 65.2066 66.9133 64.4466 66.46C63.6999 66.0067 63.1132 65.3533 62.6866 64.5C62.2599 63.6467 62.0466 62.64 62.0466 61.48C62.0466 60.3333 62.2599 59.3333 62.6866 58.48C63.1132 57.6267 63.6999 56.9733 64.4466 56.52C65.2066 56.0667 66.0666 55.84 67.0266 55.84ZM67.7266 57.84C66.7132 57.84 65.8999 58.1667 65.2866 58.82C64.6866 59.46 64.3866 60.3467 64.3866 61.48C64.3866 62.6133 64.6866 63.5067 65.2866 64.16C65.8999 64.8 66.7132 65.12 67.7266 65.12C68.3666 65.12 68.9399 64.9733 69.4466 64.68C69.9532 64.3733 70.3532 63.9467 70.6466 63.4C70.9399 62.8533 71.0866 62.2133 71.0866 61.48C71.0866 60.76 70.9399 60.1267 70.6466 59.58C70.3532 59.02 69.9532 58.5933 69.4466 58.3C68.9399 57.9933 68.3666 57.84 67.7266 57.84ZM89.1302 52.88V54.72H83.0702V59.1H88.0702V60.86H83.0702V67H80.7902V52.88H89.1302ZM95.5813 55.84C96.5813 55.84 97.4346 56.0867 98.1413 56.58C98.8479 57.0733 99.3479 57.7267 99.6413 58.54V55.98H101.921V67H99.6413V64.44C99.3479 65.2533 98.8479 65.9067 98.1413 66.4C97.4346 66.8933 96.5813 67.14 95.5813 67.14C94.6213 67.14 93.7613 66.9133 93.0013 66.46C92.2546 66.0067 91.6679 65.3533 91.2413 64.5C90.8146 63.6467 90.6013 62.64 90.6013 61.48C90.6013 60.3333 90.8146 59.3333 91.2413 58.48C91.6679 57.6267 92.2546 56.9733 93.0013 56.52C93.7613 56.0667 94.6213 55.84 95.5813 55.84ZM96.2813 57.84C95.2679 57.84 94.4546 58.1667 93.8413 58.82C93.2413 59.46 92.9413 60.3467 92.9413 61.48C92.9413 62.6133 93.2413 63.5067 93.8413 64.16C94.4546 64.8 95.2679 65.12 96.2813 65.12C96.9213 65.12 97.4946 64.9733 98.0013 64.68C98.5079 64.3733 98.9079 63.9467 99.2013 63.4C99.4946 62.8533 99.6413 62.2133 99.6413 61.48C99.6413 60.76 99.4946 60.1267 99.2013 59.58C98.9079 59.02 98.5079 58.5933 98.0013 58.3C97.4946 57.9933 96.9213 57.84 96.2813 57.84ZM106.297 65.08H111.957V67H103.777V65.18L109.137 57.9H103.917V55.98H111.757V57.8L106.297 65.08ZM124.077 60.96C124.077 61.3333 124.05 61.66 123.997 61.94H115.517C115.557 63.0733 115.87 63.9133 116.457 64.46C117.044 65.0067 117.77 65.28 118.637 65.28C119.397 65.28 120.037 65.0867 120.557 64.7C121.09 64.3133 121.417 63.8 121.537 63.16H123.977C123.83 63.9333 123.524 64.62 123.057 65.22C122.59 65.82 121.984 66.2933 121.237 66.64C120.49 66.9733 119.657 67.14 118.737 67.14C117.67 67.14 116.724 66.9133 115.897 66.46C115.084 66.0067 114.444 65.3533 113.977 64.5C113.51 63.6467 113.277 62.64 113.277 61.48C113.277 60.3333 113.51 59.3333 113.977 58.48C114.444 57.6267 115.084 56.9733 115.897 56.52C116.724 56.0667 117.67 55.84 118.737 55.84C119.817 55.84 120.757 56.0667 121.557 56.52C122.37 56.96 122.99 57.5733 123.417 58.36C123.857 59.1333 124.077 60 124.077 60.96ZM121.777 60.9C121.804 60.18 121.677 59.58 121.397 59.1C121.13 58.6067 120.757 58.2467 120.277 58.02C119.81 57.78 119.297 57.66 118.737 57.66C117.844 57.66 117.097 57.9333 116.497 58.48C115.897 59.0267 115.57 59.8333 115.517 60.9H121.777ZM132.438 55.8C133.718 55.8 134.745 56.2133 135.518 57.04C136.292 57.8667 136.678 59.0467 136.678 60.58V67H134.398V60.82C134.398 59.8333 134.145 59.0733 133.638 58.54C133.132 57.9933 132.438 57.72 131.558 57.72C130.652 57.72 129.925 58.0133 129.378 58.6C128.832 59.1733 128.558 60.02 128.558 61.14V67H126.278V55.98H128.558V58.4C128.852 57.5733 129.345 56.9333 130.038 56.48C130.732 56.0267 131.532 55.8 132.438 55.8ZM143.765 55.84C144.765 55.84 145.618 56.0867 146.325 56.58C147.032 57.0733 147.525 57.7267 147.805 58.54V52.2H150.105V67H147.805V64.44C147.525 65.2533 147.032 65.9067 146.325 66.4C145.618 66.8933 144.765 67.14 143.765 67.14C142.805 67.14 141.945 66.9133 141.185 66.46C140.438 66.0067 139.852 65.3533 139.425 64.5C138.998 63.6467 138.785 62.64 138.785 61.48C138.785 60.3333 138.998 59.3333 139.425 58.48C139.852 57.6267 140.438 56.9733 141.185 56.52C141.945 56.0667 142.805 55.84 143.765 55.84ZM144.465 57.84C143.452 57.84 142.638 58.1667 142.025 58.82C141.425 59.46 141.125 60.3467 141.125 61.48C141.125 62.6133 141.425 63.5067 142.025 64.16C142.638 64.8 143.452 65.12 144.465 65.12C145.105 65.12 145.678 64.9733 146.185 64.68C146.692 64.3733 147.092 63.9467 147.385 63.4C147.678 62.8533 147.825 62.2133 147.825 61.48C147.825 60.76 147.678 60.1267 147.385 59.58C147.092 59.02 146.692 58.5933 146.185 58.3C145.678 57.9933 145.105 57.84 144.465 57.84ZM157.261 55.84C158.261 55.84 159.114 56.0867 159.821 56.58C160.528 57.0733 161.028 57.7267 161.321 58.54V55.98H163.601V67H161.321V64.44C161.028 65.2533 160.528 65.9067 159.821 66.4C159.114 66.8933 158.261 67.14 157.261 67.14C156.301 67.14 155.441 66.9133 154.681 66.46C153.934 66.0067 153.348 65.3533 152.921 64.5C152.494 63.6467 152.281 62.64 152.281 61.48C152.281 60.3333 152.494 59.3333 152.921 58.48C153.348 57.6267 153.934 56.9733 154.681 56.52C155.441 56.0667 156.301 55.84 157.261 55.84ZM157.961 57.84C156.948 57.84 156.134 58.1667 155.521 58.82C154.921 59.46 154.621 60.3467 154.621 61.48C154.621 62.6133 154.921 63.5067 155.521 64.16C156.134 64.8 156.948 65.12 157.961 65.12C158.601 65.12 159.174 64.9733 159.681 64.68C160.188 64.3733 160.588 63.9467 160.881 63.4C161.174 62.8533 161.321 62.2133 161.321 61.48C161.321 60.76 161.174 60.1267 160.881 59.58C160.588 59.02 160.188 58.5933 159.681 58.3C159.174 57.9933 158.601 57.84 157.961 57.84Z" fill="#035373"/>
</svg>
